<?xml version="1.0" ?><svg viewBox="0 0 32 32" xmlns="http://www.w3.org/2000/svg"><defs><style>.cls-1{fill:none;stroke:#000;stroke-linejoin:round;stroke-width:2px;}</style></defs><title/><g data-name="02-Worldwide" id="_02-Worldwide"><path class="cls-1" d="M31,16A15,15,0,0,0,3.32,8,15,15,0,1,0,28.68,24,14.86,14.86,0,0,0,31,16Z"/><path class="cls-1" d="M22,16a32.86,32.86,0,0,0-.93-8C20,3.79,18.13,1,16,1s-4,2.79-5.07,7A32.86,32.86,0,0,0,10,16a32.86,32.86,0,0,0,.93,8C12,28.21,13.87,31,16,31s4-2.79,5.07-7A32.86,32.86,0,0,0,22,16Z"/><polyline class="cls-1" points="1 16 10 16 22 16 31 16"/><polyline class="cls-1" points="3 8 3.32 8 10.93 8 21.07 8 28.68 8 29 8"/><polyline class="cls-1" points="3 24 3.32 24 10.93 24 21.07 24 28.68 24 29 24"/></g></svg>