<?xml version="1.0" encoding="utf-8"?>
<!-- Generator: Adobe Illustrator 28.0.0, SVG Export Plug-In . SVG Version: 6.00 Build 0)  -->
<svg version="1.1" id="Layer_1" xmlns="http://www.w3.org/2000/svg" xmlns:xlink="http://www.w3.org/1999/xlink" x="0px" y="0px"
	 viewBox="0 0 1229.4 590.1" style="enable-background:new 0 0 1229.4 590.1;" xml:space="preserve">
<style type="text/css">
	.st0{clip-path:url(#SVGID_00000052084321504898978460000004856723308389038256_);}
	.st1{clip-path:url(#SVGID_00000049201710851014083580000010725042040836366009_);}
	.st2{clip-path:url(#SVGID_00000047773181616464363850000015306397625502185386_);}
	.st3{clip-path:url(#SVGID_00000039827855332341746500000001894219920825427594_);}
	.st4{clip-path:url(#SVGID_00000041973935085179693460000016684238994348852887_);}
	.st5{fill-rule:evenodd;clip-rule:evenodd;}
	.st6{clip-path:url(#SVGID_00000089533940488342754420000005881398034597721242_);}
	.st7{fill:#FFFFFF;}
</style>
<g>
	<defs>
		<rect id="SVGID_1_" x="233" y="76.3" width="394.4" height="444"/>
	</defs>
	<clipPath id="SVGID_00000134226537031960704810000011776622649291928230_">
		<use xlink:href="#SVGID_1_"  style="overflow:visible;"/>
	</clipPath>
	<g style="clip-path:url(#SVGID_00000134226537031960704810000011776622649291928230_);">
		<path d="M633.9,400.7c-30.9,42-80.2,69.3-135.7,69.3c-93.5,0-169.4-77.2-169.4-172.3c0-95,75.9-172.2,169.4-172.2
			c54.8,0,103.4,26.5,134.4,67.5c-35.9-69.6-106.2-116.9-187-116.9c-117.2,0-212.2,99.5-212.2,222.1c0,122.6,95.1,222.1,212.2,222.1
			C527.5,520.4,598.5,471.9,633.9,400.7z"/>
	</g>
</g>
<g>
	<defs>
		<rect id="SVGID_00000001656725478109789510000011379220872305829302_" x="609.4" y="201.4" width="18.1" height="195.1"/>
	</defs>
	<clipPath id="SVGID_00000055697879954103039930000003500675281121225885_">
		<use xlink:href="#SVGID_00000001656725478109789510000011379220872305829302_"  style="overflow:visible;"/>
	</clipPath>
	<g style="clip-path:url(#SVGID_00000055697879954103039930000003500675281121225885_);">
		<path d="M785.3,238.8L743,297.9l41.8,59.8L718,333.9L676.6,394l1-73.8l-67.4-22.6l67.4-21.8l-0.3-74.1l40.7,60.4L785.3,238.8z"/>
	</g>
</g>
<g>
	<defs>
		<rect id="SVGID_00000167386964427986313680000015667238239566962089_" x="628.3" y="76.3" width="401.1" height="444"/>
	</defs>
	<clipPath id="SVGID_00000023240873323515083070000015150625948842138502_">
		<use xlink:href="#SVGID_00000167386964427986313680000015667238239566962089_"  style="overflow:visible;"/>
	</clipPath>
	<g style="clip-path:url(#SVGID_00000023240873323515083070000015150625948842138502_);">
		<path d="M1029.2,400.7c-30.9,42-80.2,69.3-135.7,69.3C799.9,470,724,392.8,724,297.8c0-95,75.9-172.2,169.4-172.2
			c54.8,0,103.4,26.5,134.4,67.5C992,123.5,921.7,76.2,840.9,76.2c-117.2,0-212.2,99.5-212.2,222.1c0,122.6,95,222.1,212.2,222.1
			C922.7,520.4,993.8,471.9,1029.2,400.7z"/>
	</g>
</g>
<g>
	<defs>
		<rect id="SVGID_00000004510435013418252120000009972335437689634981_" x="1002.9" y="201.4" width="178.5" height="195.1"/>
	</defs>
	<clipPath id="SVGID_00000176747061311524522450000008659961665385441664_">
		<use xlink:href="#SVGID_00000004510435013418252120000009972335437689634981_"  style="overflow:visible;"/>
	</clipPath>
	<g style="clip-path:url(#SVGID_00000176747061311524522450000008659961665385441664_);">
		<path d="M1180.6,238.8l-42.3,59.2l41.8,59.8l-66.8-23.8l-41.4,60.1l1-73.8l-67.4-22.6l67.4-21.8l-0.3-74.1l40.7,60.4L1180.6,238.8
			z"/>
	</g>
</g>
<g>
	<g transform="translate(10.823191, 253.236374)">
		<g>
			<path d="M164.6,173.3c0,15,0.6,26.9,2,35.9c1.3,9,4.1,16.1,8.3,21.3c4.2,5.2,10.3,8.7,18.1,10.6c7.9,1.9,18.3,3,31.4,3.4v21.9
				h-176v-21.9c12.6-0.4,22.9-1.6,30.7-3.7c7.9-2.1,14-5.5,18.4-10.3c4.4-4.8,7.3-11.5,8.6-20.1c1.3-8.6,2-19.7,2-33.1v-211
				c0-22.2-0.1-40.6-0.3-55.2c-0.2-14.6-0.8-24.2-2-28.8c-1.9-8.4-7.7-13.6-17.3-15.5c-9.6-1.9-24-2.9-43.1-2.9v-21.8
				c18.8-0.8,38.6-3.4,59.5-7.8c20.9-4.4,40.7-9.9,59.5-16.4V173.3z"/>
		</g>
	</g>
</g>
<g>
	<defs>
		<rect id="SVGID_00000011721874902849010520000017773009669859384241_" x="300.1" y="141.9" width="300.1" height="357.2"/>
	</defs>
	<clipPath id="SVGID_00000098199178633404905890000008509559169720082607_">
		<use xlink:href="#SVGID_00000011721874902849010520000017773009669859384241_"  style="overflow:visible;"/>
	</clipPath>
	<g style="clip-path:url(#SVGID_00000098199178633404905890000008509559169720082607_);">
		<path class="st5" d="M356.6,307.2c12.9,0.2,21,4.8,21,28.9c-0.5,16.4,9.8,22.6,6,23.6c-10.3-1-14.8-3.1-16-12
			c-1-8.4-1-19-6.4-19.5c-6.7-3.6-7.9,2.6-6.5,13.5c-7.2,2.9-13.2-3.1-12.9-19.7C343,312.7,348.2,308.9,356.6,307.2z M352,295.4
			c-0.7,4.6-18.6-1.7-17,7.2c1,11.1,2.2,25.7-1.4,25.5c-3.8,0-10-14.7-10-22.1c-1.4-14,4.3-21.9,15.8-22.4
			C347.5,284.6,352,288.4,352,295.4z M486.2,281.9c-3.8-0.7-4.3-3.6,1-4.8c4.1-2.9,6.7-5.1,6.4-6.7c-1-1.9-5.5-1.2-10.5-0.2
			c-1.4,1.9-3.1,3.6-5,5.5c-1.7,1.2-8.8-1-10.3,0.2c-1.7,1.7-3.6,3.4-5.7,4.1c-6.5,1.7-8.1-2.2-4.5-5.8c1.2-1.2,0.2-3.1-1.2-2.6
			c-12,4.1-10.3-10.3-8.4-14.4c6.7-5.8,8.6-9.1,9.3-18.3c0.7-7.7,11.5-7.7,13.2-6.5c3.3,6,10.3,5.3,16.5,5.5
			c11.7-0.7,23.2-1.7,34.7-2.6c3.6-2.9,6.9-4.1,10.8-2.4c6.5,3.1-1.2,6-0.2,8.4c2.4,4.6,10.3-1.4,12.9-0.2c3.8,1.4-2.2,3.4,9.6,9.6
			c3.3,1.7,2.1-7,5.5-7c3.1-0.2,6,4.1,9.6-2.6c2.2-2.9,2.9,4.6,9.8,6c4.5,0.2,9.3,0.7,11.2-3.1c-1.7-0.7-4.1-1-1.7-4.6
			c2.4-1.7,8.4,0.7,9.6,4.6c1,2.4,1.7,6.7,0,9.9c-3.1,4.1-2.4,8.7-9.1,16.8c-1,1.9,0.5,6,0.7,9.1c0.2,4.1-2.2,4.6-5.5,3.4
			c-1.9-1-3.8-1.2-5.7-2.4c-4.1,0.2-5.7-1-5-3.8c-1.9-3.6-4.5-4.3-5.7-1.9c-2.9,6.3-5.7,5.8-6.2-0.7c-0.7-1.9-7.2-1.7-8.4-2.9
			c-3.1-3.4-6.9-6.3-10.3-9.6c-2.6,0.2-5.5,0.7-8.1,1c-1.2,2.2-2.4,4.6-3.6,7.2c0,2.6,4.3,9.4,2.4,10.1c-5.5,0-11.2,0-16.7,0
			c-2.6,1-5.7,1.7-8.6,2.4C501.3,282.2,492.9,283.1,486.2,281.9z M460.4,266c-1.9,2.2,2.1,5.3,4.3,3.1c1.7-1.9,3.6-3.1,5.3-5.1
			c2.6-1.7,8.8-2.4,15.3-2.4c3.4-3.1,1.4-7.2-2.4-6.3c-4.8,0-14.1,2.2-15.5,3.8C464.7,261.7,463,263.6,460.4,266z M429.3,142.2
			c-72.2,0-128.4,62.3-129.1,130.1c3.8,67.3,34.7,113.8,48.8,135.4c1.9,2.4,5-12.3,35.6-14.2c5.3-1.2,0.7-11.5,2.6-15.4
			c1.2-2.4,6.5-0.2,6.7-2.9c-4.3-8.2-77.2-17.3-77.9-69c-0.5-42.6,56.9-28.4,72-10.8c0-1.7,8.1-6,11.5-9.1c1.2-1-6.5,0.5-5.7-0.2
			c2.9-3.1,11.7-8.2,11.7-10.1c-5.3-27.2-13.4-24.3-3.6-37.5c3.6-11.3,15.3-11.3,14.8-14.4c-0.2-9.9-22.2,4.3-23.4,3.4
			c-1.4-2.2-2.6-2.6-2.4-4.8c-0.2-4.6,13.4-12.3,13.6-14.2c0-3.1,1-10.3-1.4-11.8c-2.9-1.9-6.9,3.8-7.4,2.4c-0.7-2.9,0-8.2,0-10.3
			c0-1.4,5.5-3.6,5.5-5.3c0-3.8-6.9-1-8.8,0.7c-1.7,1.2-13.9,21.2-16,21.9c-4.8,1.2-17.5,12-24.4,6.5c0-0.5,20.6-25,20.3-25.5
			c2.4-3.1,27.3-4.8,38.3-13.7c3.8-2.4,1.4-6.5,1.7-8.4c0.2-1.4,2.4-1.9,2.4-2.6c0-1.7-3.4-1.4-3.4-2.4c0.2-1.4,9.8-0.2,11.5-6.3
			c0-1.9-10.3-2.6-8.4-3.4C426.2,147,438.8,141.9,429.3,142.2z M581.6,341.6c2.1-0.2,6.4-10.1,9.8-15.2c1.2-1.4-1.4-8.2-3.4-9.1
			c-1-1.2-39.4,6-42.1,5.5c-4.8,0.7-5.7,6.5-8.1,6c-2.4-1.2-5-2.6-7.4-3.8c-3.6-1.7-4.8,0-3.1,4.8c-1.9,0.2-4.1,0.2-6,0.5
			c-2.6,0-2.4,3.8,1,3.8c2.4,0,4.5,0.2,6.7,0c1.9-0.2,6.9,8.2,9.6,8.4C551.5,345.4,567.5,336.5,581.6,341.6z M535,369
			c-11.7-0.7-19.6,0.7-23.2,8.7c-0.7,0.2-7.2,0.5-0.5,3.6c1.9,1,4.5,3.1,6.2,2.2c12.7-5.5,27.7-6.7,43-9.4
			c6.9-0.7,26.5,13.7,24.2,5.3c-16.7-8.4-11.5-11.8-14.8-13.7C556.9,362.5,549.8,365.1,535,369z M563.4,421.9
			c-2.2,1.4-4.3,2.9-6.5,3.8c-5,2.4-20.6,7.7-38.7-2.6c-9.3-7.9-10.3-24.3-5.5-37l-5-1.4c-4.1,0-7.6,13.2-8.8,17.1
			c-1.2,4.6-17.2,1.2-19.1,2.6c-9.3,12.8-18.4,25.7-25.3,38.7c26.5,14.7,51.2,34.9,75.3,56c11.5-26.9,28.2-40.2,62.6-65.7l-10.3-8.2
			v-1.4l-4.1-2.2L563.4,421.9z M505.6,386.5l7.2-1.2l-0.7,3.9l-6.9,1.2L505.6,386.5z M558.9,385.8l10-1l3.8,2.6l-12.2,1.4
			L558.9,385.8z M561,349l8.8-0.7l0.2,2.6l-8.8,0.7L561,349z M563.2,342.5l6.9-1.2l0.5,2.4l-7.4,1V342.5z M515.6,340.8l5.3-0.5
			l0.5,2.4l-5.2,0.7L515.6,340.8z M427.6,320.6c-1.2-1.2,6-2.4,4.5-3.4l35.9-0.5l2.4,3.4c1.9,2.6,24.6,1.2,25.6,2.9
			c2.4,5.1,4.8,8.2,9.3,10.3c-20.1,8.2-21,26-22.2,39c-1,6-4.1,10.8-6.5,9.6C464.9,360.8,449.1,340.4,427.6,320.6z"/>
	</g>
</g>
<g>
	<defs>
		<rect id="SVGID_00000067233666535107710530000016029049060865052325_" x="693.5" y="155.4" width="270.4" height="285.3"/>
	</defs>
	<clipPath id="SVGID_00000078728374720954363830000016300358724967376547_">
		<use xlink:href="#SVGID_00000067233666535107710530000016029049060865052325_"  style="overflow:visible;"/>
	</clipPath>
	<g style="clip-path:url(#SVGID_00000078728374720954363830000016300358724967376547_);">
		<path d="M828.7,441.2c-74.3,0-135.1-60.8-135.1-135.1v-15.3c0-74.3,60.8-135.1,135.1-135.1c74.3,0,135.1,60.8,135.1,135.1V306
			C963.9,380.3,903,441.2,828.7,441.2z"/>
	</g>
</g>
<g>
	<g transform="translate(216.785952, 201.309132)">
		<g>
			<path class="st7" d="M518.4,149.1c-11.8,0-20.5-3-26-8.9c-5.5-6-8.3-15.8-8.3-29.6c0-11,1.8-22.7,5.5-35.3
				c3.7-12.6,9.7-23.5,17.8-32.5c8.2-9,18.6-13.5,31.3-13.5c7.8,0,14.1,1.7,18.9,5.2c4.8,3.4,7.2,8.7,7.2,15.8c0,4.5-0.9,8-2.7,10.5
				c-1.8,2.6-4.5,3.8-8.3,3.8c-3.8,0-6.7-1.3-8.9-4c1.9-1,3.6-2.8,5-5.6c1.5-2.8,2.2-5.7,2.2-8.8c0-2.8-0.8-5.1-2.3-6.9
				c-1.5-1.8-4-2.7-7.3-2.7c-5.6,0-10.8,3.8-15.9,11.4c-5,7.5-9,17.1-12.1,28.6c-3.1,11.5-4.6,22.5-4.6,33.2c0,7.9,1.3,14,4,18.2
				c2.7,4.2,7.6,6.3,14.7,6.3c6.2,0,11.8-1.4,17.1-4.1c5.2-2.7,9.7-6.6,13.5-11.6l3.6,1.6c-2.6,6.6-6.5,12.1-11.6,16.4
				c-5.1,4.4-10.6,7.6-16.4,9.6C529.2,148.1,523.7,149.1,518.4,149.1z"/>
		</g>
	</g>
</g>
<g>
	<g transform="translate(240.312082, 201.309132)">
		<g>
			<path class="st7" d="M573.8,149.4c-6.6,0-12.4-1.2-17.4-3.5c-5-2.3-8.9-5.5-11.6-9.6c-2.7-4.1-4.1-8.9-4.1-14.4
				c0-4.6,1-8.7,2.9-12.5c1.9-3.7,4.5-6.7,7.8-8.9c3.3-2.2,6.9-3.3,10.9-3.3c3.6,0,6.7,0.9,9.3,2.7c2.5,1.8,4.1,4.4,4.7,7.6
				c-5.5,0-9.8,1.4-13,4.3c-3.2,2.9-4.9,6.8-4.9,11.7c0,4.5,1.4,8.1,4.1,10.8c2.7,2.7,6.3,4,10.8,4c5.5,0,10.1-1.8,13.7-5.5
				c3.6-3.7,5.4-8.4,5.4-14c0-4.9-1.4-9.6-4.1-14c-2.7-4.4-6.8-9.7-12.2-16c-5.7-6.5-9.9-12-12.8-16.7c-2.9-4.7-4.3-9.7-4.3-15.2
				c0-5.4,1.5-10.3,4.5-14.6c3-4.3,7.2-7.8,12.5-10.3c5.3-2.5,11.3-3.8,18-3.8c8.5,0,15.2,2,20.3,6c5.1,4,7.6,9.3,7.6,16
				c0,4.4-1.1,7.9-3.3,10.6c-2.2,2.7-5.1,4-8.6,4c-4,0-7.2-1.6-9.6-4.9c2-1.4,3.6-3.4,4.7-5.7c1.2-2.4,1.8-4.9,1.8-7.5
				c0-3.3-1-6-3-8c-2-2-4.7-3-8.1-3c-4.2,0-7.6,1.5-10.3,4.5c-2.7,3-4,6.7-4,11.3c0,4.2,1.2,8.1,3.6,11.7c2.4,3.6,6.2,8.2,11.3,13.8
				c4.2,4.5,7.5,8.3,10.1,11.6c2.5,3.2,4.7,7,6.6,11.2c1.8,4.2,2.7,8.8,2.7,13.7c0,6.7-1.9,12.8-5.6,18.2
				c-3.7,5.4-8.7,9.7-15.1,12.8S581.7,149.4,573.8,149.4z"/>
		</g>
	</g>
</g>
</svg>
